<svg width="1200" height="1600" viewBox="0 0 1200 1600" fill="none" xmlns="http://www.w3.org/2000/svg">
  <rect width="1200" height="1600" fill="#F5F6FA" />
  <rect x="0" y="0" width="1200" height="1600" fill="url(#bg)" />
  <circle cx="300" cy="320" r="220" fill="url(#glow1)" />
  <circle cx="980" cy="980" r="280" fill="url(#glow2)" />
  <rect x="220" y="320" width="760" height="980" rx="48" fill="white" stroke="#E6E8EF" />
  <rect x="300" y="420" width="360" height="28" rx="14" fill="#111827" />
  <rect x="300" y="470" width="500" height="18" rx="9" fill="#9CA3AF" />
  <rect x="300" y="560" width="560" height="60" rx="12" fill="#EEF2F7" />
  <rect x="300" y="640" width="560" height="60" rx="12" fill="#EEF2F7" />
  <rect x="300" y="740" width="560" height="56" rx="12" fill="#111827" opacity="0.85" />
  <rect x="300" y="840" width="560" height="16" rx="8" fill="#D1D5DB" />
  <rect x="300" y="880" width="360" height="16" rx="8" fill="#D1D5DB" />
  <defs>
    <linearGradient id="bg" x1="0" y1="0" x2="1200" y2="1600" gradientUnits="userSpaceOnUse">
      <stop stop-color="#F7F8FC" />
      <stop offset="1" stop-color="#EEF1F7" />
    </linearGradient>
    <radialGradient id="glow1" cx="0" cy="0" r="1" gradientUnits="userSpaceOnUse" gradientTransform="translate(300 320) rotate(90) scale(220)">
      <stop stop-color="#C7D2FE" stop-opacity="0.6" />
      <stop offset="1" stop-color="#C7D2FE" stop-opacity="0" />
    </radialGradient>
    <radialGradient id="glow2" cx="0" cy="0" r="1" gradientUnits="userSpaceOnUse" gradientTransform="translate(980 980) rotate(90) scale(280)">
      <stop stop-color="#93C5FD" stop-opacity="0.45" />
      <stop offset="1" stop-color="#93C5FD" stop-opacity="0" />
    </radialGradient>
  </defs>
</svg>
